<svg xmlns="http://www.w3.org/2000/svg" width="768" height="768" viewBox="0 0 768 768" fill="none">
  <rect width="768" height="768" fill="#080808"/>
  <g fill="#FF1D25">
    <rect x="210" y="361" width="28" height="46" rx="14"/>
    <rect x="530" y="361" width="28" height="46" rx="14"/>
    <rect x="258" y="329" width="32" height="110" rx="16"/>
    <path d="M318 405.67C318.901 400.277 319.785 394.875 320.65 389.463L331.728 320.188C333.455 309.386 342.769 301.438 353.708 301.438C365.829 301.438 375.51 311.565 374.966 323.674L368.481 468.087C367.955 479.799 358.298 489 346.574 489C334.211 489 324.441 478.432 325.412 466.106L330.085 406.82L330.221 405.093L329.039 410.539L315.816 471.473C313.335 482.909 303.227 491.041 291.525 491.041C276.381 491.041 264.892 477.395 267.465 462.472L290.621 328.194C292.467 317.489 301.76 309.68 312.623 309.68C326.547 309.68 337.058 322.312 334.529 336.005L318.447 423.056L318 405.67Z"/>
    <path d="M450 405.67C449.099 400.277 448.215 394.875 447.35 389.463L436.272 320.188C434.545 309.386 425.231 301.438 414.292 301.438C402.171 301.438 392.49 311.565 393.034 323.674L399.519 468.087C400.045 479.799 409.702 489 421.426 489C433.789 489 443.559 478.432 442.588 466.106L437.915 406.82L437.779 405.093L438.961 410.539L452.184 471.473C454.665 482.909 464.773 491.041 476.475 491.041C491.619 491.041 503.108 477.395 500.535 462.472L477.379 328.194C475.533 317.489 466.24 309.68 455.377 309.68C441.453 309.68 430.942 322.312 433.471 336.005L449.553 423.056L450 405.67Z"/>
    <rect x="478" y="329" width="32" height="110" rx="16"/>
  </g>
</svg>
